<svg viewBox="0 0 900 506" xmlns="http://www.w3.org/2000/svg"><path fill="none" d="M0 0h900v506H0z"/><g transform="matrix(1.5 0 0 1.5 90 190)"><g fill="#231F20"><path d="M134.85 4.367h22.415v44.539l41.337-44.539h27.073l-41.482 43.229 43.374 58.658H200.64L169.055 62.88l-11.79 12.226v31.148H134.85V4.364z"/><path d="M215.65 67.682v-.29c0-22.415 18.049-40.61 42.356-40.61 24.162 0 42.065 17.903 42.065 40.318v.291c0 22.415-18.049 40.608-42.356 40.608-24.162 0-42.065-17.903-42.065-40.318zm62.588 0v-.29c0-11.5-8.296-21.542-20.523-21.542-12.663 0-20.232 9.752-20.232 21.25v.292c0 11.498 8.296 21.541 20.523 21.541 12.663 0 20.232-9.752 20.232-21.25z"/><path d="M306.18 84.13V47.16h-9.315V28.238h9.315V8.297h22.124v19.941h18.339V47.16h-18.339v33.332c0 5.093 2.183 7.569 7.132 7.569 4.076 0 7.714-1.02 10.916-2.767v17.758c-4.658 2.766-10.043 4.512-17.466 4.512-13.536 0-22.706-5.386-22.706-23.434M353 0h22.124v106.25H353zm30.12 0h23.288v19.65H383.12zm.583 28.237h22.124v78.016h-22.124zm30.537 0h22.124v11.062c5.095-6.55 11.645-12.517 22.852-12.517 16.739 0 26.491 11.062 26.491 28.965v50.506h-22.124v-43.52c0-10.479-4.95-15.865-13.391-15.865-8.443 0-13.827 5.386-13.827 15.865v43.52h-22.124z"/></g><linearGradient id="a" x1="-11.379" x2="70.302" y1="92.369" y2="10.687" gradientUnits="userSpaceOnUse"><stop stop-color="#C757BC" offset=".108"/><stop stop-color="#D0609A" offset=".214"/><stop stop-color="#E1725C" offset=".425"/><stop stop-color="#EE7E2F" offset=".605"/><stop stop-color="#F58613" offset=".743"/><stop stop-color="#F88909" offset=".823"/></linearGradient><path fill="url(#a)" d="M51.312 4.316.167 58.102v48.078l51.072-51.157L102.04 4.316z"/><linearGradient id="b" x1="36.096" x2="79.126" y1="121.15" y2="78.116" gradientUnits="userSpaceOnUse"><stop stop-color="#0095D5" offset=".097"/><stop stop-color="#238AD9" offset=".301"/><stop stop-color="#557BDE" offset=".621"/><stop stop-color="#7472E2" offset=".864"/><stop stop-color="#806EE3" offset="1"/></linearGradient><path fill="url(#b)" d="m.167 106.18 51.072-51.157 50.801 51.157z"/><linearGradient id="c" x1="-4.506" x2="33.105" y1="35.881" y2="-1.73" gradientUnits="userSpaceOnUse"><stop stop-color="#0095D5" offset=".097"/><stop stop-color="#238AD9" offset=".301"/><stop stop-color="#557BDE" offset=".621"/><stop stop-color="#7472E2" offset=".864"/><stop stop-color="#806EE3" offset="1"/></linearGradient><path fill="url(#c)" d="M.167 4.316h51.146L.167 58.102z"/></g></svg>
